<mxfile host="app.diagrams.net" modified="2024-05-07T23:06:13.237Z" agent="Mozilla/5.0 (X11; Linux x86_64) AppleWebKit/537.36 (KHTML, like Gecko) Chrome/124.0.0.0 Safari/537.36" etag="xEKy1wLndnyUZ4jGpYbI" version="24.3.1" type="google">
  <diagram name="Page-1" id="Y9P-Y0sI9GcLoOlDh3Sq">
    <mxGraphModel grid="1" page="1" gridSize="10" guides="1" tooltips="1" connect="1" arrows="1" fold="1" pageScale="1" pageWidth="1000" pageHeight="750" math="0" shadow="0">
      <root>
        <mxCell id="0" />
        <mxCell id="1" parent="0" />
        <mxCell id="M18HrZ36qZifkxjibqlq-218" value="" style="rounded=0;whiteSpace=wrap;html=1;fillColor=#E6F2FF;" vertex="1" parent="1">
          <mxGeometry x="280" y="250" width="180" height="210" as="geometry" />
        </mxCell>
        <mxCell id="0b4WsjQA64Ebz_wwJr2V-1" style="rounded=0;orthogonalLoop=1;jettySize=auto;html=1;fontSize=11;exitX=0;exitY=0.5;exitDx=0;exitDy=0;strokeColor=#333333;entryX=1;entryY=0.5;entryDx=0;entryDy=0;" edge="1" parent="1" source="6ZVnqeD-wE30PsBbMw5L-19" target="M18HrZ36qZifkxjibqlq-17">
          <mxGeometry relative="1" as="geometry">
            <mxPoint x="520" y="270" as="sourcePoint" />
            <mxPoint x="220" y="560" as="targetPoint" />
            <Array as="points">
              <mxPoint x="490" y="260" />
              <mxPoint x="250" y="520" />
            </Array>
          </mxGeometry>
        </mxCell>
        <mxCell id="0b4WsjQA64Ebz_wwJr2V-7" value="" style="rounded=0;whiteSpace=wrap;html=1;fillColor=#fff2cc;strokeColor=none;fillOpacity=25;" vertex="1" parent="1">
          <mxGeometry x="520" y="320" width="210" height="110" as="geometry" />
        </mxCell>
        <mxCell id="IEaI9znGGcz1ZlvIlabM-43" value="" style="rounded=0;whiteSpace=wrap;html=1;fillColor=#FFFFFF;strokeColor=none;fillOpacity=100;" vertex="1" parent="1">
          <mxGeometry x="280" y="570" width="180" height="160" as="geometry" />
        </mxCell>
        <mxCell id="IEaI9znGGcz1ZlvIlabM-44" value="" style="rounded=0;whiteSpace=wrap;html=1;fillColor=#FFFFFF;strokeColor=none;fillOpacity=100;" vertex="1" parent="1">
          <mxGeometry x="520" y="490" width="180" height="80" as="geometry" />
        </mxCell>
        <mxCell id="IEaI9znGGcz1ZlvIlabM-45" value="" style="rounded=0;whiteSpace=wrap;html=1;fillColor=#FFFFFF;strokeColor=none;fillOpacity=100;" vertex="1" parent="1">
          <mxGeometry x="540" y="339" width="180" height="70" as="geometry" />
        </mxCell>
        <mxCell id="IEaI9znGGcz1ZlvIlabM-34" value="" style="rounded=0;whiteSpace=wrap;html=1;fillColor=#d5e8d4;strokeColor=none;fillOpacity=25;" vertex="1" parent="1">
          <mxGeometry x="780" y="50" width="210" height="390" as="geometry" />
        </mxCell>
        <mxCell id="IEaI9znGGcz1ZlvIlabM-38" value="" style="rounded=0;whiteSpace=wrap;html=1;fillColor=#e1d5e7;strokeColor=none;fillOpacity=25;" vertex="1" parent="1">
          <mxGeometry x="760" y="480" width="230" height="200" as="geometry" />
        </mxCell>
        <mxCell id="IEaI9znGGcz1ZlvIlabM-39" value="" style="rounded=0;whiteSpace=wrap;html=1;fillOpacity=100;strokeColor=none;" vertex="1" parent="1">
          <mxGeometry x="800" y="90" width="180" height="90" as="geometry" />
        </mxCell>
        <mxCell id="IEaI9znGGcz1ZlvIlabM-40" value="" style="rounded=0;whiteSpace=wrap;html=1;fillOpacity=100;strokeColor=none;" vertex="1" parent="1">
          <mxGeometry x="800" y="210" width="180" height="90" as="geometry" />
        </mxCell>
        <mxCell id="IEaI9znGGcz1ZlvIlabM-41" value="" style="rounded=0;whiteSpace=wrap;html=1;fillOpacity=100;strokeColor=none;" vertex="1" parent="1">
          <mxGeometry x="800" y="330" width="180" height="90" as="geometry" />
        </mxCell>
        <mxCell id="IEaI9znGGcz1ZlvIlabM-42" value="" style="rounded=0;whiteSpace=wrap;html=1;fillOpacity=100;strokeColor=none;" vertex="1" parent="1">
          <mxGeometry x="780" y="580" width="200" height="80" as="geometry" />
        </mxCell>
        <mxCell id="IEaI9znGGcz1ZlvIlabM-37" value="" style="rounded=0;whiteSpace=wrap;html=1;fillColor=#fff2cc;strokeColor=none;fillOpacity=25;" vertex="1" parent="1">
          <mxGeometry x="280" y="50" width="190" height="130" as="geometry" />
        </mxCell>
        <mxCell id="IEaI9znGGcz1ZlvIlabM-36" value="" style="rounded=0;whiteSpace=wrap;html=1;fillOpacity=100;strokeColor=none;" vertex="1" parent="1">
          <mxGeometry x="520" y="110" width="200" height="180" as="geometry" />
        </mxCell>
        <mxCell id="IEaI9znGGcz1ZlvIlabM-28" value="" style="rounded=0;whiteSpace=wrap;html=1;fillColor=#ffe6cc;strokeColor=none;fillOpacity=25;" vertex="1" parent="1">
          <mxGeometry x="20" y="50" width="210" height="680" as="geometry" />
        </mxCell>
        <mxCell id="IEaI9znGGcz1ZlvIlabM-29" value="" style="rounded=0;whiteSpace=wrap;html=1;fillColor=#FFFFFF;strokeColor=none;fillOpacity=100;" vertex="1" parent="1">
          <mxGeometry x="40" y="510" width="180" height="80" as="geometry" />
        </mxCell>
        <mxCell id="IEaI9znGGcz1ZlvIlabM-30" value="" style="rounded=0;whiteSpace=wrap;html=1;fillColor=#FFFFFF;strokeColor=none;fillOpacity=100;" vertex="1" parent="1">
          <mxGeometry x="40" y="90" width="180" height="90" as="geometry" />
        </mxCell>
        <mxCell id="IEaI9znGGcz1ZlvIlabM-31" value="" style="rounded=0;whiteSpace=wrap;html=1;fillColor=#FFFFFF;strokeColor=none;fillOpacity=100;" vertex="1" parent="1">
          <mxGeometry x="40" y="210" width="180" height="90" as="geometry" />
        </mxCell>
        <mxCell id="IEaI9znGGcz1ZlvIlabM-32" value="" style="rounded=0;whiteSpace=wrap;html=1;fillColor=#FFFFFF;strokeColor=none;fillOpacity=100;" vertex="1" parent="1">
          <mxGeometry x="40" y="620" width="180" height="90" as="geometry" />
        </mxCell>
        <mxCell id="IEaI9znGGcz1ZlvIlabM-33" value="" style="rounded=0;whiteSpace=wrap;html=1;fillColor=#FFFFFF;strokeColor=none;fillOpacity=100;" vertex="1" parent="1">
          <mxGeometry x="40" y="330" width="180" height="90" as="geometry" />
        </mxCell>
        <mxCell id="M18HrZ36qZifkxjibqlq-219" value="" style="rounded=0;whiteSpace=wrap;html=1;fillColor=#E6F2FF;" vertex="1" parent="1">
          <mxGeometry x="520" y="630" width="180" height="100" as="geometry" />
        </mxCell>
        <mxCell id="M18HrZ36qZifkxjibqlq-162" value="" style="rounded=0;whiteSpace=wrap;html=1;strokeColor=none;" vertex="1" parent="1">
          <mxGeometry x="40" y="340" width="20" height="30" as="geometry" />
        </mxCell>
        <mxCell id="M18HrZ36qZifkxjibqlq-11" value="proc-toast.ts" style="swimlane;fontStyle=0;childLayout=stackLayout;horizontal=1;startSize=30;horizontalStack=0;resizeParent=1;resizeParentMax=0;resizeLast=0;collapsible=1;marginBottom=0;whiteSpace=wrap;html=1;fontFamily=Verdana;fontSize=12;gradientColor=#E6E6E6;" vertex="1" parent="1">
          <mxGeometry x="800" y="330" width="180" height="90" as="geometry" />
        </mxCell>
        <mxCell id="M18HrZ36qZifkxjibqlq-12" value="+toastDefaults" style="text;strokeColor=none;fillColor=none;align=left;verticalAlign=middle;spacingLeft=4;spacingRight=4;overflow=hidden;points=[[0,0.5],[1,0.5]];portConstraint=eastwest;rotatable=0;whiteSpace=wrap;html=1;fontFamily=Verdana;fontSize=11;" vertex="1" parent="M18HrZ36qZifkxjibqlq-11">
          <mxGeometry y="30" width="180" height="20" as="geometry" />
        </mxCell>
        <mxCell id="M18HrZ36qZifkxjibqlq-15" value="fn &lt;b style=&quot;font-size: 11px;&quot;&gt;toast&lt;/b&gt;(settings?)" style="text;strokeColor=none;fillColor=none;align=left;verticalAlign=middle;spacingLeft=4;spacingRight=4;overflow=hidden;points=[[0,0.5],[1,0.5]];portConstraint=eastwest;rotatable=0;whiteSpace=wrap;html=1;fontFamily=Verdana;fontSize=11;" vertex="1" parent="M18HrZ36qZifkxjibqlq-11">
          <mxGeometry y="50" width="180" height="20" as="geometry" />
        </mxCell>
        <mxCell id="BRDDcyKAabYS6oi-f9KY-6" value="&amp;nbsp;" style="text;strokeColor=none;fillColor=none;align=left;verticalAlign=middle;spacingLeft=4;spacingRight=4;overflow=hidden;points=[[0,0.5],[1,0.5]];portConstraint=eastwest;rotatable=0;whiteSpace=wrap;html=1;fontFamily=Verdana;fontSize=11;" vertex="1" parent="M18HrZ36qZifkxjibqlq-11">
          <mxGeometry y="70" width="180" height="20" as="geometry" />
        </mxCell>
        <mxCell id="M18HrZ36qZifkxjibqlq-16" value="&lt;font color=&quot;#999999&quot;&gt;&amp;lt;div&amp;gt;&lt;/font&gt;&amp;nbsp;use-calendar.ts&amp;nbsp; &amp;nbsp; &amp;nbsp;&lt;font color=&quot;#ffffff&quot;&gt;.&lt;/font&gt;" style="swimlane;fontStyle=0;childLayout=stackLayout;horizontal=1;startSize=30;horizontalStack=0;resizeParent=1;resizeParentMax=0;resizeLast=0;collapsible=1;marginBottom=0;whiteSpace=wrap;html=1;fontFamily=Verdana;fontSize=12;" vertex="1" parent="1">
          <mxGeometry x="40" y="480" width="180" height="110" as="geometry" />
        </mxCell>
        <mxCell id="M18HrZ36qZifkxjibqlq-17" value="+calendarDefaults" style="text;strokeColor=none;fillColor=none;align=left;verticalAlign=middle;spacingLeft=4;spacingRight=4;overflow=hidden;points=[[0,0.5],[1,0.5]];portConstraint=eastwest;rotatable=0;whiteSpace=wrap;html=1;fontFamily=Verdana;fontSize=11;" vertex="1" parent="M18HrZ36qZifkxjibqlq-16">
          <mxGeometry y="30" width="180" height="20" as="geometry" />
        </mxCell>
        <mxCell id="M18HrZ36qZifkxjibqlq-19" value="fn &lt;b style=&quot;font-size: 11px;&quot;&gt;calendar&lt;/b&gt;(&lt;font color=&quot;#990099&quot;&gt;&lt;b&gt;node&lt;/b&gt;&lt;/font&gt;, settings?)" style="text;strokeColor=none;fillColor=none;align=left;verticalAlign=middle;spacingLeft=4;spacingRight=4;overflow=hidden;points=[[0,0.5],[1,0.5]];portConstraint=eastwest;rotatable=0;whiteSpace=wrap;html=1;fontFamily=Verdana;fontSize=11;" vertex="1" parent="M18HrZ36qZifkxjibqlq-16">
          <mxGeometry y="50" width="180" height="20" as="geometry" />
        </mxCell>
        <mxCell id="7z6WetiA4PaRU5x6FbnO-1" value="&amp;nbsp;" style="text;strokeColor=none;fillColor=none;align=left;verticalAlign=middle;spacingLeft=4;spacingRight=4;overflow=hidden;points=[[0,0.5],[1,0.5]];portConstraint=eastwest;rotatable=0;whiteSpace=wrap;html=1;fontFamily=Verdana;fontSize=11;" vertex="1" parent="M18HrZ36qZifkxjibqlq-16">
          <mxGeometry y="70" width="180" height="20" as="geometry" />
        </mxCell>
        <mxCell id="6ZVnqeD-wE30PsBbMw5L-36" value="cl DateFormatter(settings?)" style="text;strokeColor=none;fillColor=none;align=left;verticalAlign=middle;spacingLeft=4;spacingRight=4;overflow=hidden;points=[[0,0.5],[1,0.5]];portConstraint=eastwest;rotatable=0;whiteSpace=wrap;html=1;fontFamily=Verdana;fontSize=11;" vertex="1" parent="M18HrZ36qZifkxjibqlq-16">
          <mxGeometry y="90" width="180" height="20" as="geometry" />
        </mxCell>
        <mxCell id="M18HrZ36qZifkxjibqlq-21" value="&lt;font color=&quot;#999999&quot;&gt;&amp;lt;div&amp;gt;&lt;/font&gt; use-checkbox.ts" style="swimlane;fontStyle=0;childLayout=stackLayout;horizontal=1;startSize=30;horizontalStack=0;resizeParent=1;resizeParentMax=0;resizeLast=0;collapsible=1;marginBottom=0;whiteSpace=wrap;html=1;fontFamily=Verdana;fontSize=12;" vertex="1" parent="1">
          <mxGeometry x="40" y="330" width="180" height="90" as="geometry" />
        </mxCell>
        <mxCell id="M18HrZ36qZifkxjibqlq-22" value="+checkboxDefaults" style="text;strokeColor=none;fillColor=none;align=left;verticalAlign=middle;spacingLeft=4;spacingRight=4;overflow=hidden;points=[[0,0.5],[1,0.5]];portConstraint=eastwest;rotatable=0;whiteSpace=wrap;html=1;fontFamily=Verdana;fontSize=11;" vertex="1" parent="M18HrZ36qZifkxjibqlq-21">
          <mxGeometry y="30" width="180" height="20" as="geometry" />
        </mxCell>
        <mxCell id="M18HrZ36qZifkxjibqlq-23" value="fn &lt;b style=&quot;font-size: 11px;&quot;&gt;checkbox&lt;/b&gt;(&lt;font color=&quot;#990099&quot;&gt;&lt;b&gt;node&lt;/b&gt;&lt;/font&gt;, setn?)" style="text;strokeColor=none;fillColor=none;align=left;verticalAlign=middle;spacingLeft=4;spacingRight=4;overflow=hidden;points=[[0,0.5],[1,0.5]];portConstraint=eastwest;rotatable=0;whiteSpace=wrap;html=1;fontFamily=Verdana;fontSize=11;" vertex="1" parent="M18HrZ36qZifkxjibqlq-21">
          <mxGeometry y="50" width="180" height="20" as="geometry" />
        </mxCell>
        <mxCell id="M18HrZ36qZifkxjibqlq-154" value="&amp;nbsp;" style="text;strokeColor=none;fillColor=none;align=left;verticalAlign=middle;spacingLeft=4;spacingRight=4;overflow=hidden;points=[[0,0.5],[1,0.5]];portConstraint=eastwest;rotatable=0;whiteSpace=wrap;html=1;fontFamily=Verdana;fontSize=11;" vertex="1" parent="M18HrZ36qZifkxjibqlq-21">
          <mxGeometry y="70" width="180" height="20" as="geometry" />
        </mxCell>
        <mxCell id="M18HrZ36qZifkxjibqlq-26" value="&lt;font color=&quot;#999999&quot;&gt;&amp;lt;select&amp;gt;&lt;/font&gt;&amp;nbsp;use-dropdown.ts" style="swimlane;fontStyle=0;childLayout=stackLayout;horizontal=1;startSize=30;horizontalStack=0;resizeParent=1;resizeParentMax=0;resizeLast=0;collapsible=1;marginBottom=0;whiteSpace=wrap;html=1;fontFamily=Verdana;fontSize=12;" vertex="1" parent="1">
          <mxGeometry x="40" y="90" width="180" height="90" as="geometry" />
        </mxCell>
        <mxCell id="M18HrZ36qZifkxjibqlq-127" value="+dropdownDefaults" style="text;strokeColor=none;fillColor=none;align=left;verticalAlign=middle;spacingLeft=4;spacingRight=4;overflow=hidden;points=[[0,0.5],[1,0.5]];portConstraint=eastwest;rotatable=0;whiteSpace=wrap;html=1;fontFamily=Verdana;fontSize=11;" vertex="1" parent="M18HrZ36qZifkxjibqlq-26">
          <mxGeometry y="30" width="180" height="20" as="geometry" />
        </mxCell>
        <mxCell id="M18HrZ36qZifkxjibqlq-28" value="fn &lt;b style=&quot;font-size: 11px;&quot;&gt;dropdown&lt;/b&gt;(&lt;font color=&quot;#990099&quot;&gt;&lt;b&gt;node&lt;/b&gt;&lt;/font&gt;, setn?)" style="text;strokeColor=none;fillColor=none;align=left;verticalAlign=middle;spacingLeft=4;spacingRight=4;overflow=hidden;points=[[0,0.5],[1,0.5]];portConstraint=eastwest;rotatable=0;whiteSpace=wrap;html=1;fontFamily=Verdana;fontSize=11;" vertex="1" parent="M18HrZ36qZifkxjibqlq-26">
          <mxGeometry y="50" width="180" height="20" as="geometry" />
        </mxCell>
        <mxCell id="M18HrZ36qZifkxjibqlq-152" value="&amp;nbsp;" style="text;strokeColor=none;fillColor=none;align=left;verticalAlign=middle;spacingLeft=4;spacingRight=4;overflow=hidden;points=[[0,0.5],[1,0.5]];portConstraint=eastwest;rotatable=0;whiteSpace=wrap;html=1;fontFamily=Verdana;fontSize=11;" vertex="1" parent="M18HrZ36qZifkxjibqlq-26">
          <mxGeometry y="70" width="180" height="20" as="geometry" />
        </mxCell>
        <mxCell id="M18HrZ36qZifkxjibqlq-31" value="&lt;font color=&quot;#999999&quot;&gt;&amp;lt;div&amp;gt;&lt;/font&gt; use-modal.ts" style="swimlane;fontStyle=0;childLayout=stackLayout;horizontal=1;startSize=30;horizontalStack=0;resizeParent=1;resizeParentMax=0;resizeLast=0;collapsible=1;marginBottom=0;whiteSpace=wrap;html=1;fontFamily=Verdana;fontSize=12;" vertex="1" parent="1">
          <mxGeometry x="40" y="210" width="180" height="90" as="geometry" />
        </mxCell>
        <mxCell id="M18HrZ36qZifkxjibqlq-32" value="+modalDefaults" style="text;strokeColor=none;fillColor=none;align=left;verticalAlign=middle;spacingLeft=4;spacingRight=4;overflow=hidden;points=[[0,0.5],[1,0.5]];portConstraint=eastwest;rotatable=0;whiteSpace=wrap;html=1;fontFamily=Verdana;fontSize=11;" vertex="1" parent="M18HrZ36qZifkxjibqlq-31">
          <mxGeometry y="30" width="180" height="20" as="geometry" />
        </mxCell>
        <mxCell id="M18HrZ36qZifkxjibqlq-33" value="fn &lt;b style=&quot;font-size: 11px;&quot;&gt;modal&lt;/b&gt;(&lt;font color=&quot;#990099&quot;&gt;&lt;b&gt;node&lt;/b&gt;&lt;/font&gt;, settings?)" style="text;strokeColor=none;fillColor=none;align=left;verticalAlign=middle;spacingLeft=4;spacingRight=4;overflow=hidden;points=[[0,0.5],[1,0.5]];portConstraint=eastwest;rotatable=0;whiteSpace=wrap;html=1;fontFamily=Verdana;fontSize=11;" vertex="1" parent="M18HrZ36qZifkxjibqlq-31">
          <mxGeometry y="50" width="180" height="20" as="geometry" />
        </mxCell>
        <mxCell id="M18HrZ36qZifkxjibqlq-151" value="&amp;nbsp;" style="text;strokeColor=none;fillColor=none;align=left;verticalAlign=middle;spacingLeft=4;spacingRight=4;overflow=hidden;points=[[0,0.5],[1,0.5]];portConstraint=eastwest;rotatable=0;whiteSpace=wrap;html=1;fontFamily=Verdana;fontSize=11;" vertex="1" parent="M18HrZ36qZifkxjibqlq-31">
          <mxGeometry y="70" width="180" height="20" as="geometry" />
        </mxCell>
        <mxCell id="M18HrZ36qZifkxjibqlq-34" value="use-popup.ts" style="swimlane;fontStyle=0;childLayout=stackLayout;horizontal=1;startSize=30;horizontalStack=0;resizeParent=1;resizeParentMax=0;resizeLast=0;collapsible=1;marginBottom=0;whiteSpace=wrap;html=1;fontFamily=Verdana;fontSize=12;" vertex="1" parent="1">
          <mxGeometry x="800" y="90" width="180" height="90" as="geometry" />
        </mxCell>
        <mxCell id="M18HrZ36qZifkxjibqlq-35" value="+popupDefaults" style="text;strokeColor=none;fillColor=none;align=left;verticalAlign=middle;spacingLeft=4;spacingRight=4;overflow=hidden;points=[[0,0.5],[1,0.5]];portConstraint=eastwest;rotatable=0;whiteSpace=wrap;html=1;fontFamily=Verdana;fontSize=11;" vertex="1" parent="M18HrZ36qZifkxjibqlq-34">
          <mxGeometry y="30" width="180" height="20" as="geometry" />
        </mxCell>
        <mxCell id="M18HrZ36qZifkxjibqlq-36" value="fn &lt;b style=&quot;font-size: 11px;&quot;&gt;popup&lt;/b&gt;(&lt;font color=&quot;#990099&quot;&gt;&lt;b&gt;node&lt;/b&gt;&lt;/font&gt;, settings?)" style="text;strokeColor=none;fillColor=none;align=left;verticalAlign=middle;spacingLeft=4;spacingRight=4;overflow=hidden;points=[[0,0.5],[1,0.5]];portConstraint=eastwest;rotatable=0;whiteSpace=wrap;html=1;fontFamily=Verdana;fontSize=11;" vertex="1" parent="M18HrZ36qZifkxjibqlq-34">
          <mxGeometry y="50" width="180" height="20" as="geometry" />
        </mxCell>
        <mxCell id="M18HrZ36qZifkxjibqlq-156" value="&amp;nbsp;" style="text;strokeColor=none;fillColor=none;align=left;verticalAlign=middle;spacingLeft=4;spacingRight=4;overflow=hidden;points=[[0,0.5],[1,0.5]];portConstraint=eastwest;rotatable=0;whiteSpace=wrap;html=1;fontFamily=Verdana;fontSize=11;" vertex="1" parent="M18HrZ36qZifkxjibqlq-34">
          <mxGeometry y="70" width="180" height="20" as="geometry" />
        </mxCell>
        <mxCell id="M18HrZ36qZifkxjibqlq-37" value="&lt;font color=&quot;#999999&quot;&gt;&amp;lt;div&amp;gt;&lt;/font&gt; use-slider.ts&amp;nbsp; &amp;nbsp;&lt;font color=&quot;#ffffff&quot;&gt;.&lt;/font&gt;" style="swimlane;fontStyle=0;childLayout=stackLayout;horizontal=1;startSize=30;horizontalStack=0;resizeParent=1;resizeParentMax=0;resizeLast=0;collapsible=1;marginBottom=0;whiteSpace=wrap;html=1;fontFamily=Verdana;fontSize=12;" vertex="1" parent="1">
          <mxGeometry x="40" y="620" width="180" height="90" as="geometry" />
        </mxCell>
        <mxCell id="M18HrZ36qZifkxjibqlq-38" value="+sliderDefaults" style="text;strokeColor=none;fillColor=none;align=left;verticalAlign=middle;spacingLeft=4;spacingRight=4;overflow=hidden;points=[[0,0.5],[1,0.5]];portConstraint=eastwest;rotatable=0;whiteSpace=wrap;html=1;fontFamily=Verdana;fontSize=11;" vertex="1" parent="M18HrZ36qZifkxjibqlq-37">
          <mxGeometry y="30" width="180" height="20" as="geometry" />
        </mxCell>
        <mxCell id="M18HrZ36qZifkxjibqlq-39" value="fn &lt;b style=&quot;font-size: 11px;&quot;&gt;slider&lt;/b&gt;(&lt;font color=&quot;#990099&quot;&gt;&lt;b&gt;node&lt;/b&gt;&lt;/font&gt;, settings?)" style="text;strokeColor=none;fillColor=none;align=left;verticalAlign=middle;spacingLeft=4;spacingRight=4;overflow=hidden;points=[[0,0.5],[1,0.5]];portConstraint=eastwest;rotatable=0;whiteSpace=wrap;html=1;fontFamily=Verdana;fontSize=11;" vertex="1" parent="M18HrZ36qZifkxjibqlq-37">
          <mxGeometry y="50" width="180" height="20" as="geometry" />
        </mxCell>
        <mxCell id="M18HrZ36qZifkxjibqlq-149" value="&amp;nbsp;" style="text;strokeColor=none;fillColor=none;align=left;verticalAlign=middle;spacingLeft=4;spacingRight=4;overflow=hidden;points=[[0,0.5],[1,0.5]];portConstraint=eastwest;rotatable=0;whiteSpace=wrap;html=1;fontFamily=Verdana;fontSize=11;" vertex="1" parent="M18HrZ36qZifkxjibqlq-37">
          <mxGeometry y="70" width="180" height="20" as="geometry" />
        </mxCell>
        <mxCell id="M18HrZ36qZifkxjibqlq-40" value="&lt;font color=&quot;#999999&quot;&gt;&amp;lt;div&amp;gt;&lt;/font&gt; use-sticky.ts" style="swimlane;fontStyle=0;childLayout=stackLayout;horizontal=1;startSize=30;horizontalStack=0;resizeParent=1;resizeParentMax=0;resizeLast=0;collapsible=1;marginBottom=0;whiteSpace=wrap;html=1;fontFamily=Verdana;fontSize=12;" vertex="1" parent="1">
          <mxGeometry x="800" y="210" width="180" height="90" as="geometry" />
        </mxCell>
        <mxCell id="M18HrZ36qZifkxjibqlq-41" value="+stickyDefaults" style="text;strokeColor=none;fillColor=none;align=left;verticalAlign=middle;spacingLeft=4;spacingRight=4;overflow=hidden;points=[[0,0.5],[1,0.5]];portConstraint=eastwest;rotatable=0;whiteSpace=wrap;html=1;fontFamily=Verdana;fontSize=11;" vertex="1" parent="M18HrZ36qZifkxjibqlq-40">
          <mxGeometry y="30" width="180" height="20" as="geometry" />
        </mxCell>
        <mxCell id="M18HrZ36qZifkxjibqlq-42" value="fn &lt;b style=&quot;font-size: 11px;&quot;&gt;sticky&lt;/b&gt;(&lt;font color=&quot;#990099&quot;&gt;&lt;b&gt;node&lt;/b&gt;&lt;/font&gt;, settings?)" style="text;strokeColor=none;fillColor=none;align=left;verticalAlign=middle;spacingLeft=4;spacingRight=4;overflow=hidden;points=[[0,0.5],[1,0.5]];portConstraint=eastwest;rotatable=0;whiteSpace=wrap;html=1;fontFamily=Verdana;fontSize=11;" vertex="1" parent="M18HrZ36qZifkxjibqlq-40">
          <mxGeometry y="50" width="180" height="20" as="geometry" />
        </mxCell>
        <mxCell id="BRDDcyKAabYS6oi-f9KY-7" value="&amp;nbsp;" style="text;strokeColor=none;fillColor=none;align=left;verticalAlign=middle;spacingLeft=4;spacingRight=4;overflow=hidden;points=[[0,0.5],[1,0.5]];portConstraint=eastwest;rotatable=0;whiteSpace=wrap;html=1;fontFamily=Verdana;fontSize=11;" vertex="1" parent="M18HrZ36qZifkxjibqlq-40">
          <mxGeometry y="70" width="180" height="20" as="geometry" />
        </mxCell>
        <mxCell id="M18HrZ36qZifkxjibqlq-43" value="&lt;b style=&quot;&quot;&gt;_&lt;/b&gt;common.ts" style="swimlane;fontStyle=0;childLayout=stackLayout;horizontal=1;startSize=30;horizontalStack=0;resizeParent=1;resizeParentMax=0;resizeLast=0;collapsible=1;marginBottom=0;whiteSpace=wrap;html=1;fontFamily=Verdana;fontSize=12;gradientColor=#E6E6E6;" vertex="1" parent="1">
          <mxGeometry x="280" y="540" width="180" height="190" as="geometry" />
        </mxCell>
        <mxCell id="M18HrZ36qZifkxjibqlq-228" value="type&amp;nbsp;&lt;span style=&quot;font-size: 11px;&quot;&gt;DataTypes&lt;/span&gt;" style="text;strokeColor=none;fillColor=none;align=left;verticalAlign=middle;spacingLeft=4;spacingRight=4;overflow=hidden;points=[[0,0.5],[1,0.5]];portConstraint=eastwest;rotatable=0;whiteSpace=wrap;html=1;fontFamily=Verdana;fontSize=11;fontColor=#004C99;fontStyle=2" vertex="1" parent="M18HrZ36qZifkxjibqlq-43">
          <mxGeometry y="30" width="180" height="20" as="geometry" />
        </mxCell>
        <mxCell id="IEaI9znGGcz1ZlvIlabM-10" value="type&amp;nbsp;&lt;span style=&quot;font-size: 11px;&quot;&gt;Formatter&lt;/span&gt;" style="text;strokeColor=none;fillColor=none;align=left;verticalAlign=middle;spacingLeft=4;spacingRight=4;overflow=hidden;points=[[0,0.5],[1,0.5]];portConstraint=eastwest;rotatable=0;whiteSpace=wrap;html=1;fontFamily=Verdana;fontSize=11;fontColor=#004C99;fontStyle=2" vertex="1" parent="M18HrZ36qZifkxjibqlq-43">
          <mxGeometry y="50" width="180" height="20" as="geometry" />
        </mxCell>
        <mxCell id="M18HrZ36qZifkxjibqlq-47" value="type&amp;nbsp;&lt;span style=&quot;font-size: 11px;&quot;&gt;JQueryApi&lt;/span&gt;" style="text;strokeColor=none;fillColor=none;align=left;verticalAlign=middle;spacingLeft=4;spacingRight=4;overflow=hidden;points=[[0,0.5],[1,0.5]];portConstraint=eastwest;rotatable=0;whiteSpace=wrap;html=1;fontFamily=Verdana;fontSize=11;fontColor=#004C99;fontStyle=2" vertex="1" parent="M18HrZ36qZifkxjibqlq-43">
          <mxGeometry y="70" width="180" height="20" as="geometry" />
        </mxCell>
        <mxCell id="IEaI9znGGcz1ZlvIlabM-21" value="type RuleDefinition" style="text;strokeColor=none;fillColor=none;align=left;verticalAlign=middle;spacingLeft=4;spacingRight=4;overflow=hidden;points=[[0,0.5],[1,0.5]];portConstraint=eastwest;rotatable=0;whiteSpace=wrap;html=1;fontFamily=Verdana;fontSize=11;fontColor=#004C99;fontStyle=2" vertex="1" parent="M18HrZ36qZifkxjibqlq-43">
          <mxGeometry y="90" width="180" height="20" as="geometry" />
        </mxCell>
        <mxCell id="M18HrZ36qZifkxjibqlq-51" value="type&amp;nbsp;&lt;span style=&quot;font-size: 11px;&quot;&gt;FormController&lt;/span&gt;" style="text;strokeColor=none;fillColor=none;align=left;verticalAlign=middle;spacingLeft=4;spacingRight=4;overflow=hidden;points=[[0,0.5],[1,0.5]];portConstraint=eastwest;rotatable=0;whiteSpace=wrap;html=1;fontFamily=Verdana;fontSize=11;fontColor=#004C99;fontStyle=2" vertex="1" parent="M18HrZ36qZifkxjibqlq-43">
          <mxGeometry y="110" width="180" height="20" as="geometry" />
        </mxCell>
        <mxCell id="M18HrZ36qZifkxjibqlq-50" value="type&amp;nbsp;&lt;span style=&quot;font-size: 11px;&quot;&gt;DataController&amp;lt;Data&amp;gt;&lt;/span&gt;" style="text;strokeColor=none;fillColor=none;align=left;verticalAlign=middle;spacingLeft=4;spacingRight=4;overflow=hidden;points=[[0,0.5],[1,0.5]];portConstraint=eastwest;rotatable=0;whiteSpace=wrap;html=1;fontFamily=Verdana;fontSize=11;fontColor=#004C99;fontStyle=2" vertex="1" parent="M18HrZ36qZifkxjibqlq-43">
          <mxGeometry y="130" width="180" height="20" as="geometry" />
        </mxCell>
        <mxCell id="M18HrZ36qZifkxjibqlq-56" value="fn &lt;font color=&quot;#009900&quot;&gt;isoDateTime&lt;/font&gt;(date) -&amp;gt; &lt;font color=&quot;#990000&quot; style=&quot;font-size: 11px;&quot;&gt;str&lt;/font&gt;" style="text;strokeColor=none;fillColor=none;align=left;verticalAlign=middle;spacingLeft=4;spacingRight=4;overflow=hidden;points=[[0,0.5],[1,0.5]];portConstraint=eastwest;rotatable=0;whiteSpace=wrap;html=1;fontFamily=Verdana;fontSize=11;" vertex="1" parent="M18HrZ36qZifkxjibqlq-43">
          <mxGeometry y="150" width="180" height="20" as="geometry" />
        </mxCell>
        <mxCell id="M18HrZ36qZifkxjibqlq-145" value="&amp;nbsp;" style="text;strokeColor=none;fillColor=none;align=left;verticalAlign=middle;spacingLeft=4;spacingRight=4;overflow=hidden;points=[[0,0.5],[1,0.5]];portConstraint=eastwest;rotatable=0;whiteSpace=wrap;html=1;fontFamily=Verdana;fontSize=11;" vertex="1" parent="M18HrZ36qZifkxjibqlq-43">
          <mxGeometry y="170" width="180" height="20" as="geometry" />
        </mxCell>
        <mxCell id="M18HrZ36qZifkxjibqlq-60" value="fmt.ts" style="swimlane;fontStyle=0;childLayout=stackLayout;horizontal=1;startSize=30;horizontalStack=0;resizeParent=1;resizeParentMax=0;resizeLast=0;collapsible=1;marginBottom=0;whiteSpace=wrap;html=1;fontFamily=Verdana;fontSize=12;gradientColor=#E6E6E6;" vertex="1" parent="1">
          <mxGeometry x="520" y="80" width="200" height="210" as="geometry">
            <mxRectangle x="520" y="110" width="180" height="30" as="alternateBounds" />
          </mxGeometry>
        </mxCell>
        <mxCell id="M18HrZ36qZifkxjibqlq-61" value="+formatDefaults" style="text;strokeColor=none;fillColor=none;align=left;verticalAlign=middle;spacingLeft=4;spacingRight=4;overflow=hidden;points=[[0,0.5],[1,0.5]];portConstraint=eastwest;rotatable=0;whiteSpace=wrap;html=1;fontFamily=Verdana;fontSize=11;" vertex="1" parent="M18HrZ36qZifkxjibqlq-60">
          <mxGeometry y="30" width="200" height="20" as="geometry" />
        </mxCell>
        <mxCell id="M18HrZ36qZifkxjibqlq-63" value="cl NumberFormatter(prec, sep)" style="text;strokeColor=none;fillColor=none;align=left;verticalAlign=middle;spacingLeft=4;spacingRight=4;overflow=hidden;points=[[0,0.5],[1,0.5]];portConstraint=eastwest;rotatable=0;whiteSpace=wrap;html=1;fontFamily=Verdana;fontSize=11;" vertex="1" parent="M18HrZ36qZifkxjibqlq-60">
          <mxGeometry y="50" width="200" height="20" as="geometry" />
        </mxCell>
        <mxCell id="M18HrZ36qZifkxjibqlq-66" value="cl MoneyFormatter(prec, pr, sf)" style="text;strokeColor=none;fillColor=none;align=left;verticalAlign=middle;spacingLeft=4;spacingRight=4;overflow=hidden;points=[[0,0.5],[1,0.5]];portConstraint=eastwest;rotatable=0;whiteSpace=wrap;html=1;fontFamily=Verdana;fontSize=11;" vertex="1" parent="M18HrZ36qZifkxjibqlq-60">
          <mxGeometry y="70" width="200" height="20" as="geometry" />
        </mxCell>
        <mxCell id="M18HrZ36qZifkxjibqlq-67" value="cl CaseFormatter(case)" style="text;strokeColor=none;fillColor=none;align=left;verticalAlign=middle;spacingLeft=4;spacingRight=4;overflow=hidden;points=[[0,0.5],[1,0.5]];portConstraint=eastwest;rotatable=0;whiteSpace=wrap;html=1;fontFamily=Verdana;fontSize=11;" vertex="1" parent="M18HrZ36qZifkxjibqlq-60">
          <mxGeometry y="90" width="200" height="20" as="geometry" />
        </mxCell>
        <mxCell id="M18HrZ36qZifkxjibqlq-68" value="cl ListFormatter(sep)" style="text;strokeColor=none;fillColor=none;align=left;verticalAlign=middle;spacingLeft=4;spacingRight=4;overflow=hidden;points=[[0,0.5],[1,0.5]];portConstraint=eastwest;rotatable=0;whiteSpace=wrap;html=1;fontFamily=Verdana;fontSize=11;" vertex="1" parent="M18HrZ36qZifkxjibqlq-60">
          <mxGeometry y="110" width="200" height="20" as="geometry" />
        </mxCell>
        <mxCell id="z73nh_HZhzmmKTyW-7t--1" value="cl IsoDateFormatter()" style="text;strokeColor=none;fillColor=none;align=left;verticalAlign=middle;spacingLeft=4;spacingRight=4;overflow=hidden;points=[[0,0.5],[1,0.5]];portConstraint=eastwest;rotatable=0;whiteSpace=wrap;html=1;fontFamily=Verdana;fontSize=11;" vertex="1" parent="M18HrZ36qZifkxjibqlq-60">
          <mxGeometry y="130" width="200" height="20" as="geometry" />
        </mxCell>
        <mxCell id="0b4WsjQA64Ebz_wwJr2V-9" value="&amp;nbsp;" style="text;strokeColor=none;fillColor=none;align=left;verticalAlign=middle;spacingLeft=4;spacingRight=4;overflow=hidden;points=[[0,0.5],[1,0.5]];portConstraint=eastwest;rotatable=0;whiteSpace=wrap;html=1;fontFamily=Verdana;fontSize=11;fontColor=#333333;" vertex="1" parent="M18HrZ36qZifkxjibqlq-60">
          <mxGeometry y="150" width="200" height="20" as="geometry" />
        </mxCell>
        <mxCell id="6ZVnqeD-wE30PsBbMw5L-19" value="+fmt&amp;nbsp; &amp;nbsp; : num(), date(), ..." style="text;strokeColor=none;fillColor=none;align=left;verticalAlign=middle;spacingLeft=4;spacingRight=4;overflow=hidden;points=[[0,0.5],[1,0.5]];portConstraint=eastwest;rotatable=0;whiteSpace=wrap;html=1;fontFamily=Verdana;fontSize=11;" vertex="1" parent="M18HrZ36qZifkxjibqlq-60">
          <mxGeometry y="170" width="200" height="20" as="geometry" />
        </mxCell>
        <mxCell id="6ZVnqeD-wE30PsBbMw5L-20" value="+parse : num(), date(), ..." style="text;strokeColor=none;fillColor=none;align=left;verticalAlign=middle;spacingLeft=4;spacingRight=4;overflow=hidden;points=[[0,0.5],[1,0.5]];portConstraint=eastwest;rotatable=0;whiteSpace=wrap;html=1;fontFamily=Verdana;fontSize=11;" vertex="1" parent="M18HrZ36qZifkxjibqlq-60">
          <mxGeometry y="190" width="200" height="20" as="geometry" />
        </mxCell>
        <mxCell id="M18HrZ36qZifkxjibqlq-75" value="&lt;font color=&quot;#999999&quot;&gt;&amp;lt;comp&amp;gt;&lt;/font&gt;&amp;nbsp;use-validate.ts" style="swimlane;fontStyle=0;childLayout=stackLayout;horizontal=1;startSize=30;horizontalStack=0;resizeParent=1;resizeParentMax=0;resizeLast=0;collapsible=1;marginBottom=0;whiteSpace=wrap;html=1;fontFamily=Verdana;fontSize=12;fillColor=#FFFFFF;" vertex="1" parent="1">
          <mxGeometry x="540" y="340" width="180" height="70" as="geometry" />
        </mxCell>
        <mxCell id="M18HrZ36qZifkxjibqlq-76" value="fn &lt;span style=&quot;font-size: 11px;&quot;&gt;&lt;b&gt;validate&lt;/b&gt;&lt;/span&gt;(&lt;span style=&quot;color: rgb(153, 0, 77);&quot;&gt;&lt;b&gt;node&lt;/b&gt;&lt;/span&gt;, rules)" style="text;strokeColor=none;fillColor=none;align=left;verticalAlign=middle;spacingLeft=4;spacingRight=4;overflow=hidden;points=[[0,0.5],[1,0.5]];portConstraint=eastwest;rotatable=0;whiteSpace=wrap;html=1;fontFamily=Verdana;fontSize=11;" vertex="1" parent="M18HrZ36qZifkxjibqlq-75">
          <mxGeometry y="30" width="180" height="20" as="geometry" />
        </mxCell>
        <mxCell id="M18HrZ36qZifkxjibqlq-146" value="&amp;nbsp;" style="text;strokeColor=none;fillColor=none;align=left;verticalAlign=middle;spacingLeft=4;spacingRight=4;overflow=hidden;points=[[0,0.5],[1,0.5]];portConstraint=eastwest;rotatable=0;whiteSpace=wrap;html=1;fontFamily=Verdana;fontSize=11;" vertex="1" parent="M18HrZ36qZifkxjibqlq-75">
          <mxGeometry y="50" width="180" height="20" as="geometry" />
        </mxCell>
        <mxCell id="M18HrZ36qZifkxjibqlq-88" value="&lt;font color=&quot;#999999&quot;&gt;&amp;lt;form&amp;gt; &lt;/font&gt;sui-form-validation.ts" style="swimlane;fontStyle=0;childLayout=stackLayout;horizontal=1;startSize=30;horizontalStack=0;resizeParent=1;resizeParentMax=0;resizeLast=0;collapsible=1;marginBottom=0;whiteSpace=wrap;html=1;fontFamily=Verdana;fontSize=12;" vertex="1" parent="1">
          <mxGeometry x="780" y="550" width="200" height="110" as="geometry" />
        </mxCell>
        <mxCell id="M18HrZ36qZifkxjibqlq-100" value="+validationDefaults" style="text;strokeColor=none;fillColor=none;align=left;verticalAlign=middle;spacingLeft=4;spacingRight=4;overflow=hidden;points=[[0,0.5],[1,0.5]];portConstraint=eastwest;rotatable=0;whiteSpace=wrap;html=1;fontFamily=Verdana;fontSize=11;" vertex="1" parent="M18HrZ36qZifkxjibqlq-88">
          <mxGeometry y="30" width="200" height="20" as="geometry" />
        </mxCell>
        <mxCell id="M18HrZ36qZifkxjibqlq-91" value="fn &lt;b style=&quot;font-size: 11px;&quot;&gt;formValidation&lt;/b&gt;(&lt;font color=&quot;#99004d&quot;&gt;&lt;b&gt;node&lt;/b&gt;&lt;/font&gt;, setn?)" style="text;strokeColor=none;fillColor=none;align=left;verticalAlign=middle;spacingLeft=4;spacingRight=4;overflow=hidden;points=[[0,0.5],[1,0.5]];portConstraint=eastwest;rotatable=0;whiteSpace=wrap;html=1;fontFamily=Verdana;fontSize=11;" vertex="1" parent="M18HrZ36qZifkxjibqlq-88">
          <mxGeometry y="50" width="200" height="20" as="geometry" />
        </mxCell>
        <mxCell id="6ZVnqeD-wE30PsBbMw5L-16" value="&amp;nbsp;" style="text;strokeColor=none;fillColor=none;align=left;verticalAlign=middle;spacingLeft=4;spacingRight=4;overflow=hidden;points=[[0,0.5],[1,0.5]];portConstraint=eastwest;rotatable=0;whiteSpace=wrap;html=1;fontFamily=Verdana;fontSize=11;" vertex="1" parent="M18HrZ36qZifkxjibqlq-88">
          <mxGeometry y="70" width="200" height="20" as="geometry" />
        </mxCell>
        <mxCell id="G6nPDBNf9DYN_jqVvdKw-1" value="&amp;nbsp;" style="text;strokeColor=none;fillColor=none;align=left;verticalAlign=middle;spacingLeft=4;spacingRight=4;overflow=hidden;points=[[0,0.5],[1,0.5]];portConstraint=eastwest;rotatable=0;whiteSpace=wrap;html=1;fontFamily=Verdana;fontSize=11;" vertex="1" parent="M18HrZ36qZifkxjibqlq-88">
          <mxGeometry y="90" width="200" height="20" as="geometry" />
        </mxCell>
        <mxCell id="M18HrZ36qZifkxjibqlq-115" style="rounded=0;orthogonalLoop=1;jettySize=auto;html=1;dashed=1;dashPattern=1 2;fontSize=11;exitX=0;exitY=0.5;exitDx=0;exitDy=0;entryX=1;entryY=0;entryDx=0;entryDy=0;fillColor=#f8cecc;strokeColor=#b85450;strokeWidth=2;endArrow=diamondThin;endFill=1;" edge="1" parent="1" source="M18HrZ36qZifkxjibqlq-104" target="z73nh_HZhzmmKTyW-7t--3">
          <mxGeometry relative="1" as="geometry">
            <mxPoint x="270" y="460" as="sourcePoint" />
            <mxPoint x="200" y="170" as="targetPoint" />
            <Array as="points">
              <mxPoint x="250" y="365" />
            </Array>
          </mxGeometry>
        </mxCell>
        <mxCell id="M18HrZ36qZifkxjibqlq-116" style="rounded=0;orthogonalLoop=1;jettySize=auto;html=1;dashed=1;dashPattern=1 2;fontSize=11;entryX=1;entryY=0;entryDx=0;entryDy=0;exitX=0;exitY=0.5;exitDx=0;exitDy=0;fillColor=#f8cecc;strokeColor=#b85450;strokeWidth=2;endArrow=diamondThin;endFill=1;" edge="1" parent="1" source="M18HrZ36qZifkxjibqlq-105" target="z73nh_HZhzmmKTyW-7t--4">
          <mxGeometry relative="1" as="geometry">
            <mxPoint x="275" y="386" as="sourcePoint" />
            <mxPoint x="215" y="620" as="targetPoint" />
            <Array as="points">
              <mxPoint x="260" y="386" />
              <mxPoint x="230" y="590" />
            </Array>
          </mxGeometry>
        </mxCell>
        <mxCell id="M18HrZ36qZifkxjibqlq-117" style="rounded=0;orthogonalLoop=1;jettySize=auto;html=1;dashed=1;dashPattern=1 2;fontSize=11;exitX=0;exitY=0.5;exitDx=0;exitDy=0;entryX=1;entryY=1;entryDx=0;entryDy=0;fillColor=#f8cecc;strokeColor=#b85450;strokeWidth=2;endArrow=diamondThin;endFill=1;" edge="1" parent="1" source="M18HrZ36qZifkxjibqlq-102" target="M18HrZ36qZifkxjibqlq-26">
          <mxGeometry relative="1" as="geometry">
            <mxPoint x="270" y="420" as="sourcePoint" />
            <mxPoint x="200" y="300" as="targetPoint" />
            <Array as="points">
              <mxPoint x="250" y="300" />
            </Array>
          </mxGeometry>
        </mxCell>
        <mxCell id="M18HrZ36qZifkxjibqlq-118" style="rounded=0;orthogonalLoop=1;jettySize=auto;html=1;dashed=1;dashPattern=1 2;fontSize=11;exitX=0;exitY=0.5;exitDx=0;exitDy=0;entryX=1;entryY=1;entryDx=0;entryDy=0;fillColor=#f8cecc;strokeColor=#b85450;strokeWidth=2;endArrow=diamondThin;endFill=1;" edge="1" parent="1" source="M18HrZ36qZifkxjibqlq-103" target="M18HrZ36qZifkxjibqlq-31">
          <mxGeometry relative="1" as="geometry">
            <mxPoint x="270" y="440" as="sourcePoint" />
            <mxPoint x="415" y="210" as="targetPoint" />
            <Array as="points">
              <mxPoint x="250" y="320" />
            </Array>
          </mxGeometry>
        </mxCell>
        <mxCell id="M18HrZ36qZifkxjibqlq-132" value="form-validator-bind.svelte" style="swimlane;fontStyle=0;childLayout=stackLayout;horizontal=1;startSize=30;horizontalStack=0;resizeParent=1;resizeParentMax=0;resizeLast=0;collapsible=1;marginBottom=0;whiteSpace=wrap;html=1;fontFamily=Verdana;fontSize=12;gradientColor=none;fillColor=#CCE5FF;" vertex="1" parent="1">
          <mxGeometry x="520" y="600" width="180" height="130" as="geometry" />
        </mxCell>
        <mxCell id="M18HrZ36qZifkxjibqlq-179" value="&amp;lt;FormValidator /&amp;gt;" style="text;strokeColor=none;fillColor=none;align=left;verticalAlign=middle;spacingLeft=4;spacingRight=4;overflow=hidden;points=[[0,0.5],[1,0.5]];portConstraint=eastwest;rotatable=0;whiteSpace=wrap;html=1;fontFamily=Verdana;fontSize=11;fontStyle=1" vertex="1" parent="M18HrZ36qZifkxjibqlq-132">
          <mxGeometry y="30" width="180" height="20" as="geometry" />
        </mxCell>
        <mxCell id="M18HrZ36qZifkxjibqlq-134" value="&lt;div style=&quot;text-align: center;&quot;&gt;&lt;span style=&quot;background-color: initial;&quot;&gt;active = bool&lt;/span&gt;&lt;/div&gt;" style="text;strokeColor=none;fillColor=none;align=left;verticalAlign=bottom;spacingLeft=4;spacingRight=4;overflow=hidden;points=[[0,0.5],[1,0.5]];portConstraint=eastwest;rotatable=0;whiteSpace=wrap;html=1;fontFamily=Verdana;fontSize=11;" vertex="1" parent="M18HrZ36qZifkxjibqlq-132">
          <mxGeometry y="50" width="180" height="20" as="geometry" />
        </mxCell>
        <mxCell id="M18HrZ36qZifkxjibqlq-135" value="&lt;span style=&quot;font-family: &amp;quot;Times New Roman&amp;quot;; font-size: medium; text-align: center;&quot;&gt;←&lt;/span&gt;&amp;nbsp;bind:valid" style="text;strokeColor=none;fillColor=none;align=left;verticalAlign=bottom;spacingLeft=4;spacingRight=4;overflow=hidden;points=[[0,0.5],[1,0.5]];portConstraint=eastwest;rotatable=0;whiteSpace=wrap;html=1;fontFamily=Verdana;fontSize=11;" vertex="1" parent="M18HrZ36qZifkxjibqlq-132">
          <mxGeometry y="70" width="180" height="20" as="geometry" />
        </mxCell>
        <mxCell id="M18HrZ36qZifkxjibqlq-136" value="&lt;span style=&quot;font-family: &amp;quot;Times New Roman&amp;quot;; font-size: medium; text-align: center;&quot;&gt;←&lt;/span&gt;&amp;nbsp;bind:errors" style="text;strokeColor=none;fillColor=none;align=left;verticalAlign=bottom;spacingLeft=4;spacingRight=4;overflow=hidden;points=[[0,0.5],[1,0.5]];portConstraint=eastwest;rotatable=0;whiteSpace=wrap;html=1;fontFamily=Verdana;fontSize=11;" vertex="1" parent="M18HrZ36qZifkxjibqlq-132">
          <mxGeometry y="90" width="180" height="20" as="geometry" />
        </mxCell>
        <mxCell id="M18HrZ36qZifkxjibqlq-148" value="&amp;nbsp;" style="text;strokeColor=none;fillColor=none;align=left;verticalAlign=middle;spacingLeft=4;spacingRight=4;overflow=hidden;points=[[0,0.5],[1,0.5]];portConstraint=eastwest;rotatable=0;whiteSpace=wrap;html=1;fontFamily=Verdana;fontSize=11;" vertex="1" parent="M18HrZ36qZifkxjibqlq-132">
          <mxGeometry y="110" width="180" height="20" as="geometry" />
        </mxCell>
        <mxCell id="M18HrZ36qZifkxjibqlq-142" value="&amp;lt;input&amp;gt; | &amp;lt;textarea&amp;gt;" style="swimlane;fontStyle=0;childLayout=stackLayout;horizontal=1;startSize=30;horizontalStack=0;resizeParent=1;resizeParentMax=0;resizeLast=0;collapsible=1;marginBottom=0;whiteSpace=wrap;html=1;fontFamily=Verdana;fontSize=12;fillColor=#fff2cc;strokeColor=none;" vertex="1" parent="1">
          <mxGeometry x="280" y="20" width="190" height="50" as="geometry">
            <mxRectangle x="520" y="20" width="220" height="30" as="alternateBounds" />
          </mxGeometry>
        </mxCell>
        <mxCell id="BRDDcyKAabYS6oi-f9KY-11" value="free-form input enhancement" style="text;strokeColor=none;fillColor=none;align=left;verticalAlign=middle;spacingLeft=4;spacingRight=4;overflow=hidden;points=[[0,0.5],[1,0.5]];portConstraint=eastwest;rotatable=0;whiteSpace=wrap;html=1;fontFamily=Verdana;fontSize=11;fontColor=#333333;fontStyle=2" vertex="1" parent="M18HrZ36qZifkxjibqlq-142">
          <mxGeometry y="30" width="190" height="20" as="geometry" />
        </mxCell>
        <mxCell id="M18HrZ36qZifkxjibqlq-173" style="rounded=0;orthogonalLoop=1;jettySize=auto;html=1;dashed=1;dashPattern=1 2;fontSize=11;exitX=0;exitY=0.5;exitDx=0;exitDy=0;entryX=1;entryY=0.5;entryDx=0;entryDy=0;fillColor=#f8cecc;strokeColor=#b85450;strokeWidth=2;endArrow=diamondThin;endFill=1;" edge="1" parent="1" source="M18HrZ36qZifkxjibqlq-180" target="lc3PecMojwnJsaIatB0K-1">
          <mxGeometry relative="1" as="geometry">
            <mxPoint x="300" y="350" as="sourcePoint" />
            <mxPoint x="280" y="280" as="targetPoint" />
            <Array as="points" />
          </mxGeometry>
        </mxCell>
        <mxCell id="M18HrZ36qZifkxjibqlq-231" value="&amp;lt;form&amp;gt;" style="swimlane;fontStyle=0;childLayout=stackLayout;horizontal=1;startSize=30;horizontalStack=0;resizeParent=1;resizeParentMax=0;resizeLast=0;collapsible=1;marginBottom=0;whiteSpace=wrap;html=1;fontFamily=Verdana;fontSize=12;fillColor=#e1d5e7;strokeColor=none;" vertex="1" parent="1">
          <mxGeometry x="760" y="480" width="230" height="50" as="geometry" />
        </mxCell>
        <mxCell id="BRDDcyKAabYS6oi-f9KY-13" value="form validation" style="text;strokeColor=none;fillColor=none;align=left;verticalAlign=middle;spacingLeft=4;spacingRight=4;overflow=hidden;points=[[0,0.5],[1,0.5]];portConstraint=eastwest;rotatable=0;whiteSpace=wrap;html=1;fontFamily=Verdana;fontSize=11;fontStyle=2;fontColor=#333333;" vertex="1" parent="M18HrZ36qZifkxjibqlq-231">
          <mxGeometry y="30" width="230" height="20" as="geometry" />
        </mxCell>
        <mxCell id="M18HrZ36qZifkxjibqlq-235" style="rounded=0;orthogonalLoop=1;jettySize=auto;html=1;fontSize=11;entryX=0.25;entryY=0;entryDx=0;entryDy=0;" edge="1" parent="1" target="M18HrZ36qZifkxjibqlq-43">
          <mxGeometry relative="1" as="geometry">
            <mxPoint x="300" y="510" as="sourcePoint" />
            <mxPoint x="270" y="540" as="targetPoint" />
          </mxGeometry>
        </mxCell>
        <mxCell id="M18HrZ36qZifkxjibqlq-236" style="rounded=0;orthogonalLoop=1;jettySize=auto;html=1;fontSize=11;entryX=0.75;entryY=0;entryDx=0;entryDy=0;" edge="1" parent="1" target="M18HrZ36qZifkxjibqlq-43">
          <mxGeometry relative="1" as="geometry">
            <mxPoint x="440" y="510" as="sourcePoint" />
            <mxPoint x="280" y="621.6" as="targetPoint" />
          </mxGeometry>
        </mxCell>
        <mxCell id="M18HrZ36qZifkxjibqlq-237" style="rounded=0;orthogonalLoop=1;jettySize=auto;html=1;fontSize=11;entryX=0.5;entryY=0;entryDx=0;entryDy=0;" edge="1" parent="1" target="M18HrZ36qZifkxjibqlq-43">
          <mxGeometry relative="1" as="geometry">
            <mxPoint x="370" y="500" as="sourcePoint" />
            <mxPoint x="280" y="560" as="targetPoint" />
          </mxGeometry>
        </mxCell>
        <mxCell id="pr7jS6OSRtYmSh4A72Eb-6" value="used by all other files" style="edgeLabel;html=1;align=center;verticalAlign=middle;resizable=0;points=[];" connectable="0" vertex="1" parent="M18HrZ36qZifkxjibqlq-237">
          <mxGeometry x="-0.2" relative="1" as="geometry">
            <mxPoint as="offset" />
          </mxGeometry>
        </mxCell>
        <mxCell id="nJXPpLXf1G0N_aMXCdBJ-1" value="MODULES &amp;amp; FILES" style="rounded=0;whiteSpace=wrap;html=1;fillColor=none;strokeColor=none;fontFamily=Verdana;fontSize=18;fontColor=#333333;align=center;" vertex="1" parent="1">
          <mxGeometry x="520" y="20" width="200" height="40" as="geometry" />
        </mxCell>
        <mxCell id="BRDDcyKAabYS6oi-f9KY-4" value="&lt;span style=&quot;text-align: left;&quot;&gt;&lt;font style=&quot;font-size: 12px;&quot;&gt;&amp;lt;div&amp;gt; | &amp;lt;select&amp;gt;&lt;/font&gt;&lt;/span&gt;" style="swimlane;fontStyle=0;childLayout=stackLayout;horizontal=1;startSize=30;horizontalStack=0;resizeParent=1;resizeParentMax=0;resizeLast=0;collapsible=1;marginBottom=0;whiteSpace=wrap;html=1;fontFamily=Verdana;fontSize=12;fillColor=#ffe6cc;strokeColor=none;" vertex="1" parent="1">
          <mxGeometry x="20" y="20" width="210" height="50" as="geometry" />
        </mxCell>
        <mxCell id="BRDDcyKAabYS6oi-f9KY-10" value="SUI component activation" style="text;strokeColor=none;fillColor=none;align=left;verticalAlign=middle;spacingLeft=4;spacingRight=4;overflow=hidden;points=[[0,0.5],[1,0.5]];portConstraint=eastwest;rotatable=0;whiteSpace=wrap;html=1;fontFamily=Verdana;fontSize=11;fontStyle=2;fontColor=#333333;" vertex="1" parent="BRDDcyKAabYS6oi-f9KY-4">
          <mxGeometry y="30" width="210" height="20" as="geometry" />
        </mxCell>
        <mxCell id="BRDDcyKAabYS6oi-f9KY-14" value="&amp;lt;button&amp;gt; |&amp;nbsp;&amp;lt;input&amp;gt; | &amp;lt;div&amp;gt;" style="swimlane;fontStyle=0;childLayout=stackLayout;horizontal=1;startSize=30;horizontalStack=0;resizeParent=1;resizeParentMax=0;resizeLast=0;collapsible=1;marginBottom=0;whiteSpace=wrap;html=1;fontFamily=Verdana;fontSize=12;fillColor=#d5e8d4;strokeColor=none;" vertex="1" parent="1">
          <mxGeometry x="780" y="20" width="210" height="50" as="geometry" />
        </mxCell>
        <mxCell id="BRDDcyKAabYS6oi-f9KY-15" value="UI decorations" style="text;strokeColor=none;fillColor=none;align=left;verticalAlign=middle;spacingLeft=4;spacingRight=4;overflow=hidden;points=[[0,0.5],[1,0.5]];portConstraint=eastwest;rotatable=0;whiteSpace=wrap;html=1;fontFamily=Verdana;fontSize=11;fontColor=#333333;fontStyle=2" vertex="1" parent="BRDDcyKAabYS6oi-f9KY-14">
          <mxGeometry y="30" width="210" height="20" as="geometry" />
        </mxCell>
        <mxCell id="IEaI9znGGcz1ZlvIlabM-5" value="" style="endArrow=none;html=1;rounded=0;fillColor=#d5e8d4;strokeColor=#82b366;strokeWidth=2;" edge="1" parent="BRDDcyKAabYS6oi-f9KY-14">
          <mxGeometry width="50" height="50" relative="1" as="geometry">
            <mxPoint y="420" as="sourcePoint" />
            <mxPoint as="targetPoint" />
          </mxGeometry>
        </mxCell>
        <mxCell id="IEaI9znGGcz1ZlvIlabM-2" value="" style="endArrow=none;html=1;rounded=0;fillColor=#ffe6cc;strokeColor=#d79b00;strokeWidth=2;" edge="1" parent="1">
          <mxGeometry width="50" height="50" relative="1" as="geometry">
            <mxPoint x="20" y="730" as="sourcePoint" />
            <mxPoint x="20" y="20" as="targetPoint" />
          </mxGeometry>
        </mxCell>
        <mxCell id="IEaI9znGGcz1ZlvIlabM-3" value="" style="endArrow=none;html=1;rounded=0;fillColor=#fff2cc;strokeColor=#d6b656;strokeWidth=2;" edge="1" parent="1">
          <mxGeometry width="50" height="50" relative="1" as="geometry">
            <mxPoint x="280" y="180" as="sourcePoint" />
            <mxPoint x="280" y="20" as="targetPoint" />
          </mxGeometry>
        </mxCell>
        <mxCell id="IEaI9znGGcz1ZlvIlabM-6" value="" style="endArrow=none;html=1;rounded=0;fillColor=#e1d5e7;strokeColor=#9673a6;strokeWidth=2;" edge="1" parent="1">
          <mxGeometry width="50" height="50" relative="1" as="geometry">
            <mxPoint x="760" y="680" as="sourcePoint" />
            <mxPoint x="760" y="480" as="targetPoint" />
          </mxGeometry>
        </mxCell>
        <mxCell id="M18HrZ36qZifkxjibqlq-229" style="rounded=0;orthogonalLoop=1;jettySize=auto;html=1;fontSize=11;exitX=0.5;exitY=0;exitDx=0;exitDy=0;entryX=0.5;entryY=1;entryDx=0;entryDy=0;" edge="1" parent="1" source="M18HrZ36qZifkxjibqlq-101" target="6ZVnqeD-wE30PsBbMw5L-38">
          <mxGeometry relative="1" as="geometry">
            <mxPoint x="450" y="293" as="sourcePoint" />
            <mxPoint x="620" y="330" as="targetPoint" />
          </mxGeometry>
        </mxCell>
        <mxCell id="IEaI9znGGcz1ZlvIlabM-18" value="sui-rule.ts" style="swimlane;fontStyle=0;childLayout=stackLayout;horizontal=1;startSize=30;horizontalStack=0;resizeParent=1;resizeParentMax=0;resizeLast=0;collapsible=1;marginBottom=0;whiteSpace=wrap;html=1;fontFamily=Verdana;fontSize=12;gradientColor=#E6E6E6;" vertex="1" parent="1">
          <mxGeometry x="520" y="460" width="180" height="110" as="geometry" />
        </mxCell>
        <mxCell id="IEaI9znGGcz1ZlvIlabM-19" value="+rule" style="text;strokeColor=none;fillColor=none;align=left;verticalAlign=middle;spacingLeft=4;spacingRight=4;overflow=hidden;points=[[0,0.5],[1,0.5]];portConstraint=eastwest;rotatable=0;whiteSpace=wrap;html=1;fontFamily=Verdana;fontSize=11;fontColor=#000000;fontStyle=2" vertex="1" parent="IEaI9znGGcz1ZlvIlabM-18">
          <mxGeometry y="30" width="180" height="20" as="geometry" />
        </mxCell>
        <mxCell id="cefotnFPPKbyY3r7HRc0-3" value="&lt;font&gt;type ErrorPrompts&lt;/font&gt;" style="text;strokeColor=none;fillColor=none;align=left;verticalAlign=middle;spacingLeft=4;spacingRight=4;overflow=hidden;points=[[0,0.5],[1,0.5]];portConstraint=eastwest;rotatable=0;whiteSpace=wrap;html=1;fontFamily=Verdana;fontSize=11;fontStyle=2;fontColor=#004C99;" vertex="1" parent="IEaI9znGGcz1ZlvIlabM-18">
          <mxGeometry y="50" width="180" height="20" as="geometry" />
        </mxCell>
        <mxCell id="0b4WsjQA64Ebz_wwJr2V-17" value="&lt;font color=&quot;#990000&quot;&gt;fn registerRule(fn, prompt)&lt;/font&gt;" style="text;strokeColor=none;fillColor=none;align=left;verticalAlign=middle;spacingLeft=4;spacingRight=4;overflow=hidden;points=[[0,0.5],[1,0.5]];portConstraint=eastwest;rotatable=0;whiteSpace=wrap;html=1;fontFamily=Verdana;fontSize=11;" vertex="1" parent="IEaI9znGGcz1ZlvIlabM-18">
          <mxGeometry y="70" width="180" height="20" as="geometry" />
        </mxCell>
        <mxCell id="6ZVnqeD-wE30PsBbMw5L-4" value="&amp;nbsp;" style="text;strokeColor=none;fillColor=none;align=left;verticalAlign=middle;spacingLeft=4;spacingRight=4;overflow=hidden;points=[[0,0.5],[1,0.5]];portConstraint=eastwest;rotatable=0;whiteSpace=wrap;html=1;fontFamily=Verdana;fontSize=11;" vertex="1" parent="IEaI9znGGcz1ZlvIlabM-18">
          <mxGeometry y="90" width="180" height="20" as="geometry" />
        </mxCell>
        <mxCell id="M18HrZ36qZifkxjibqlq-234" style="rounded=0;orthogonalLoop=1;jettySize=auto;html=1;dashed=1;dashPattern=1 2;fontSize=11;fillColor=#f8cecc;strokeColor=#b85450;strokeWidth=2;endArrow=diamondThin;endFill=1;" edge="1" parent="1" source="M18HrZ36qZifkxjibqlq-132" target="M18HrZ36qZifkxjibqlq-88">
          <mxGeometry relative="1" as="geometry">
            <mxPoint x="700" y="645" as="sourcePoint" />
            <mxPoint x="750" y="670" as="targetPoint" />
            <Array as="points" />
          </mxGeometry>
        </mxCell>
        <mxCell id="z73nh_HZhzmmKTyW-7t--3" value="(F)" style="rounded=0;whiteSpace=wrap;html=1;fillColor=none;strokeColor=none;fontFamily=Verdana;fontSize=12;fontColor=#999999;" vertex="1" parent="1">
          <mxGeometry x="190" y="480" width="30" height="30" as="geometry" />
        </mxCell>
        <mxCell id="z73nh_HZhzmmKTyW-7t--4" value="(F)" style="rounded=0;whiteSpace=wrap;html=1;fillColor=none;strokeColor=none;fontFamily=Verdana;fontSize=12;fontColor=#999999;" vertex="1" parent="1">
          <mxGeometry x="190" y="620" width="30" height="30" as="geometry" />
        </mxCell>
        <mxCell id="z73nh_HZhzmmKTyW-7t--5" value="(F)" style="rounded=0;whiteSpace=wrap;html=1;fillColor=none;strokeColor=none;fontFamily=Verdana;fontSize=12;fontColor=#999999;" vertex="1" parent="1">
          <mxGeometry x="950" y="330" width="30" height="30" as="geometry" />
        </mxCell>
        <mxCell id="lc3PecMojwnJsaIatB0K-1" value="&lt;font color=&quot;#ffffff&quot;&gt;.&lt;/font&gt;" style="rounded=0;whiteSpace=wrap;html=1;fillColor=none;strokeColor=none;fontFamily=Verdana;fontSize=12;fontColor=#999999;" vertex="1" parent="1">
          <mxGeometry x="190" y="329" width="30" height="30" as="geometry" />
        </mxCell>
        <mxCell id="pr7jS6OSRtYmSh4A72Eb-2" style="rounded=0;orthogonalLoop=1;jettySize=auto;html=1;dashed=1;dashPattern=1 2;fontSize=11;fillColor=#f8cecc;strokeColor=#b85450;strokeWidth=2;endArrow=diamondThin;endFill=1;" edge="1" parent="1">
          <mxGeometry relative="1" as="geometry">
            <mxPoint x="770" y="720" as="sourcePoint" />
            <mxPoint x="800" y="720" as="targetPoint" />
            <Array as="points" />
          </mxGeometry>
        </mxCell>
        <mxCell id="pr7jS6OSRtYmSh4A72Eb-3" value="conn. to store" style="rounded=0;whiteSpace=wrap;html=1;fillColor=none;strokeColor=none;fontFamily=Verdana;fontSize=10;fontColor=#333333;align=left;" vertex="1" parent="1">
          <mxGeometry x="810" y="710" width="80" height="20" as="geometry" />
        </mxCell>
        <mxCell id="pr7jS6OSRtYmSh4A72Eb-4" value="uses/depends" style="rounded=0;whiteSpace=wrap;html=1;fillColor=none;strokeColor=none;fontFamily=Verdana;fontSize=10;fontColor=#333333;align=left;" vertex="1" parent="1">
          <mxGeometry x="810" y="690" width="80" height="20" as="geometry" />
        </mxCell>
        <mxCell id="pr7jS6OSRtYmSh4A72Eb-5" style="rounded=0;orthogonalLoop=1;jettySize=auto;html=1;fontSize=11;" edge="1" parent="1">
          <mxGeometry relative="1" as="geometry">
            <mxPoint x="770" y="700" as="sourcePoint" />
            <mxPoint x="800" y="700" as="targetPoint" />
          </mxGeometry>
        </mxCell>
        <mxCell id="pr7jS6OSRtYmSh4A72Eb-7" value="global object" style="rounded=0;whiteSpace=wrap;html=1;fillColor=none;strokeColor=none;fontFamily=Verdana;fontSize=10;fontColor=#333333;align=left;" vertex="1" parent="1">
          <mxGeometry x="920" y="690" width="70" height="20" as="geometry" />
        </mxCell>
        <mxCell id="pr7jS6OSRtYmSh4A72Eb-8" value="+" style="rounded=0;whiteSpace=wrap;html=1;fillColor=none;strokeColor=none;fontFamily=Verdana;fontSize=11;fontColor=#333333;align=center;" vertex="1" parent="1">
          <mxGeometry x="890" y="690" width="30" height="20" as="geometry" />
        </mxCell>
        <mxCell id="pr7jS6OSRtYmSh4A72Eb-9" value="data binding" style="rounded=0;whiteSpace=wrap;html=1;fillColor=none;strokeColor=none;fontFamily=Verdana;fontSize=10;fontColor=#333333;align=left;" vertex="1" parent="1">
          <mxGeometry x="920" y="710" width="70" height="20" as="geometry" />
        </mxCell>
        <mxCell id="pr7jS6OSRtYmSh4A72Eb-10" value="&lt;span style=&quot;color: rgb(0, 0, 0); font-family: &amp;quot;Times New Roman&amp;quot;; font-size: medium;&quot;&gt;↔&lt;/span&gt;" style="rounded=0;whiteSpace=wrap;html=1;fillColor=none;strokeColor=none;fontFamily=Verdana;fontSize=11;fontColor=#333333;align=center;" vertex="1" parent="1">
          <mxGeometry x="890" y="710" width="30" height="20" as="geometry" />
        </mxCell>
        <mxCell id="6ZVnqeD-wE30PsBbMw5L-24" value="" style="rounded=0;whiteSpace=wrap;html=1;fillOpacity=100;strokeColor=none;" vertex="1" parent="1">
          <mxGeometry x="300" y="120" width="160" height="40" as="geometry" />
        </mxCell>
        <mxCell id="6ZVnqeD-wE30PsBbMw5L-25" value="&lt;font color=&quot;#999999&quot;&gt;&amp;lt;input&amp;gt;&lt;/font&gt;&amp;nbsp;use-format.ts" style="swimlane;fontStyle=0;childLayout=stackLayout;horizontal=1;startSize=30;horizontalStack=0;resizeParent=1;resizeParentMax=0;resizeLast=0;collapsible=1;marginBottom=0;whiteSpace=wrap;html=1;fontFamily=Verdana;fontSize=12;" vertex="1" parent="1">
          <mxGeometry x="300" y="90" width="160" height="70" as="geometry">
            <mxRectangle x="520" y="110" width="180" height="30" as="alternateBounds" />
          </mxGeometry>
        </mxCell>
        <mxCell id="6ZVnqeD-wE30PsBbMw5L-27" value="fn &lt;b style=&quot;font-size: 11px;&quot;&gt;format&lt;/b&gt;(&lt;font color=&quot;#990099&quot;&gt;&lt;b&gt;node&lt;/b&gt;&lt;/font&gt;, setn?)" style="text;strokeColor=none;fillColor=none;align=left;verticalAlign=middle;spacingLeft=4;spacingRight=4;overflow=hidden;points=[[0,0.5],[1,0.5]];portConstraint=eastwest;rotatable=0;whiteSpace=wrap;html=1;fontFamily=Verdana;fontSize=11;" vertex="1" parent="6ZVnqeD-wE30PsBbMw5L-25">
          <mxGeometry y="30" width="160" height="20" as="geometry" />
        </mxCell>
        <mxCell id="6ZVnqeD-wE30PsBbMw5L-34" value="&amp;nbsp;" style="text;strokeColor=none;fillColor=none;align=left;verticalAlign=middle;spacingLeft=4;spacingRight=4;overflow=hidden;points=[[0,0.5],[1,0.5]];portConstraint=eastwest;rotatable=0;whiteSpace=wrap;html=1;fontFamily=Verdana;fontSize=11;" vertex="1" parent="6ZVnqeD-wE30PsBbMw5L-25">
          <mxGeometry y="50" width="160" height="20" as="geometry" />
        </mxCell>
        <mxCell id="M18HrZ36qZifkxjibqlq-225" style="rounded=0;orthogonalLoop=1;jettySize=auto;html=1;dashed=1;dashPattern=1 2;fontSize=11;exitX=0;exitY=0.5;exitDx=0;exitDy=0;fillColor=#f8cecc;strokeColor=#b85450;strokeWidth=2;endArrow=diamondThin;endFill=1;entryX=0;entryY=0.5;entryDx=0;entryDy=0;" edge="1" parent="1" source="M18HrZ36qZifkxjibqlq-106" target="6ZVnqeD-wE30PsBbMw5L-34">
          <mxGeometry relative="1" as="geometry">
            <mxPoint x="360" y="260" as="sourcePoint" />
            <mxPoint x="500" y="240" as="targetPoint" />
            <Array as="points">
              <mxPoint x="260" y="279" />
              <mxPoint x="260" y="170" />
            </Array>
          </mxGeometry>
        </mxCell>
        <mxCell id="6ZVnqeD-wE30PsBbMw5L-38" value="" style="rounded=0;whiteSpace=wrap;html=1;fillColor=none;strokeColor=none;" vertex="1" parent="1">
          <mxGeometry x="360" y="140" width="20" height="20" as="geometry" />
        </mxCell>
        <mxCell id="0b4WsjQA64Ebz_wwJr2V-4" value="" style="rounded=0;whiteSpace=wrap;html=1;fillColor=#E6F2FF;opacity=75;" vertex="1" parent="1">
          <mxGeometry x="280" y="250" width="180" height="210" as="geometry" />
        </mxCell>
        <mxCell id="M18HrZ36qZifkxjibqlq-101" value="data-bind.svelte" style="swimlane;fontStyle=0;childLayout=stackLayout;horizontal=1;startSize=30;horizontalStack=0;resizeParent=1;resizeParentMax=0;resizeLast=0;collapsible=1;marginBottom=0;whiteSpace=wrap;html=1;fontFamily=Verdana;fontSize=12;fillColor=#CCE5FF;strokeColor=#000000;gradientColor=none;gradientDirection=south;" vertex="1" parent="1">
          <mxGeometry x="280" y="220" width="180" height="240" as="geometry" />
        </mxCell>
        <mxCell id="M18HrZ36qZifkxjibqlq-181" value="&amp;lt;Data /&amp;gt;" style="text;strokeColor=none;fillColor=none;align=left;verticalAlign=middle;spacingLeft=4;spacingRight=4;overflow=hidden;points=[[0,0.5],[1,0.5]];portConstraint=eastwest;rotatable=0;whiteSpace=wrap;html=1;fontFamily=Verdana;fontSize=11;fontStyle=1" vertex="1" parent="M18HrZ36qZifkxjibqlq-101">
          <mxGeometry y="30" width="180" height="18" as="geometry" />
        </mxCell>
        <mxCell id="M18HrZ36qZifkxjibqlq-106" value="&lt;span style=&quot;font-family: &amp;quot;Times New Roman&amp;quot;; font-size: medium; text-align: center;&quot;&gt;↔&lt;/span&gt;&amp;nbsp;bind:value&amp;nbsp; &amp;nbsp; &amp;nbsp; &amp;nbsp; &amp;nbsp;&lt;font style=&quot;font-size: 10px;&quot;&gt;&amp;nbsp; &amp;nbsp;&lt;/font&gt;&lt;font color=&quot;#333333&quot;&gt; --input&lt;/font&gt;" style="text;strokeColor=none;fillColor=none;align=left;verticalAlign=bottom;spacingLeft=4;spacingRight=4;overflow=hidden;points=[[0,0.5],[1,0.5]];portConstraint=eastwest;rotatable=0;whiteSpace=wrap;html=1;fontFamily=Verdana;fontSize=11;" vertex="1" parent="M18HrZ36qZifkxjibqlq-101">
          <mxGeometry y="48" width="180" height="21" as="geometry" />
        </mxCell>
        <mxCell id="M18HrZ36qZifkxjibqlq-102" value="&lt;span style=&quot;font-family: &amp;quot;Times New Roman&amp;quot;; font-size: medium; text-align: center;&quot;&gt;↔&lt;/span&gt;&amp;nbsp;bind:selected&amp;nbsp; &lt;font color=&quot;#333333&quot;&gt;--dropdown&lt;/font&gt;" style="text;strokeColor=none;fillColor=none;align=left;verticalAlign=bottom;spacingLeft=4;spacingRight=4;overflow=hidden;points=[[0,0.5],[1,0.5]];portConstraint=eastwest;rotatable=0;whiteSpace=wrap;html=1;fontFamily=Verdana;fontSize=11;" vertex="1" parent="M18HrZ36qZifkxjibqlq-101">
          <mxGeometry y="69" width="180" height="21" as="geometry" />
        </mxCell>
        <mxCell id="M18HrZ36qZifkxjibqlq-103" value="&lt;span style=&quot;font-family: &amp;quot;Times New Roman&amp;quot;; font-size: medium; text-align: center;&quot;&gt;↔&lt;/span&gt;&amp;nbsp;bind:active&amp;nbsp; &amp;nbsp; &amp;nbsp;&lt;font style=&quot;font-size: 12px;&quot;&gt; &amp;nbsp; &amp;nbsp;&lt;/font&gt; &lt;font color=&quot;#333333&quot;&gt;--popup&lt;/font&gt;" style="text;strokeColor=none;fillColor=none;align=left;verticalAlign=bottom;spacingLeft=4;spacingRight=4;overflow=hidden;points=[[0,0.5],[1,0.5]];portConstraint=eastwest;rotatable=0;whiteSpace=wrap;html=1;fontFamily=Verdana;fontSize=11;" vertex="1" parent="M18HrZ36qZifkxjibqlq-101">
          <mxGeometry y="90" width="180" height="22" as="geometry" />
        </mxCell>
        <mxCell id="M18HrZ36qZifkxjibqlq-180" value="&lt;span style=&quot;font-family: &amp;quot;Times New Roman&amp;quot;; font-size: medium; text-align: center;&quot;&gt;↔&lt;/span&gt;&amp;nbsp;bind:checked | group &lt;font color=&quot;#333333&quot;&gt;--cb&lt;/font&gt;" style="text;strokeColor=none;fillColor=none;align=left;verticalAlign=bottom;spacingLeft=4;spacingRight=4;overflow=hidden;points=[[0,0.5],[1,0.5]];portConstraint=eastwest;rotatable=0;whiteSpace=wrap;html=1;fontFamily=Verdana;fontSize=11;" vertex="1" parent="M18HrZ36qZifkxjibqlq-101">
          <mxGeometry y="112" width="180" height="22" as="geometry" />
        </mxCell>
        <mxCell id="M18HrZ36qZifkxjibqlq-104" value="&lt;span style=&quot;font-family: &amp;quot;Times New Roman&amp;quot;; font-size: medium; text-align: center;&quot;&gt;↔&lt;/span&gt;&amp;nbsp;bind:date&amp;nbsp; &amp;nbsp; &amp;nbsp; &lt;font style=&quot;font-size: 12px;&quot;&gt;&amp;nbsp; &lt;/font&gt;&amp;nbsp;&lt;font color=&quot;#333333&quot;&gt;--calendar&lt;/font&gt;" style="text;strokeColor=none;fillColor=none;align=left;verticalAlign=bottom;spacingLeft=4;spacingRight=4;overflow=hidden;points=[[0,0.5],[1,0.5]];portConstraint=eastwest;rotatable=0;whiteSpace=wrap;html=1;fontFamily=Verdana;fontSize=11;" vertex="1" parent="M18HrZ36qZifkxjibqlq-101">
          <mxGeometry y="134" width="180" height="21" as="geometry" />
        </mxCell>
        <mxCell id="M18HrZ36qZifkxjibqlq-105" value="&lt;span style=&quot;font-family: &amp;quot;Times New Roman&amp;quot;; font-size: medium; text-align: center;&quot;&gt;↔&lt;/span&gt;&amp;nbsp;bind:position&amp;nbsp; &amp;nbsp; &lt;font style=&quot;font-size: 10px;&quot;&gt;&amp;nbsp; &amp;nbsp; &lt;/font&gt;&amp;nbsp;&lt;font color=&quot;#333333&quot;&gt;--sl&lt;font style=&quot;font-size: 11px;&quot;&gt;id&lt;/font&gt;er&lt;/font&gt;" style="text;strokeColor=none;fillColor=none;align=left;verticalAlign=bottom;spacingLeft=4;spacingRight=4;overflow=hidden;points=[[0,0.5],[1,0.5]];portConstraint=eastwest;rotatable=0;whiteSpace=wrap;html=1;fontFamily=Verdana;fontSize=11;" vertex="1" parent="M18HrZ36qZifkxjibqlq-101">
          <mxGeometry y="155" width="180" height="22" as="geometry" />
        </mxCell>
        <mxCell id="M18HrZ36qZifkxjibqlq-107" value="validate = rules&amp;nbsp; &amp;nbsp; &amp;nbsp;&lt;font style=&quot;font-size: 12px;&quot;&gt;&amp;nbsp; &amp;nbsp;&lt;/font&gt;&amp;nbsp;&lt;font color=&quot;#333333&quot;&gt;--(any)&lt;/font&gt;" style="text;strokeColor=none;fillColor=none;align=left;verticalAlign=middle;spacingLeft=4;spacingRight=4;overflow=hidden;points=[[0,0.5],[1,0.5]];portConstraint=eastwest;rotatable=0;whiteSpace=wrap;html=1;fontFamily=Verdana;fontSize=11;fontStyle=0" vertex="1" parent="M18HrZ36qZifkxjibqlq-101">
          <mxGeometry y="177" width="180" height="26" as="geometry" />
        </mxCell>
        <mxCell id="M18HrZ36qZifkxjibqlq-108" value="forId" style="text;strokeColor=none;fillColor=none;align=left;verticalAlign=middle;spacingLeft=4;spacingRight=4;overflow=hidden;points=[[0,0.5],[1,0.5]];portConstraint=eastwest;rotatable=0;whiteSpace=wrap;html=1;fontFamily=Verdana;fontSize=11;" vertex="1" parent="M18HrZ36qZifkxjibqlq-101">
          <mxGeometry y="203" width="180" height="19" as="geometry" />
        </mxCell>
        <mxCell id="M18HrZ36qZifkxjibqlq-184" value="&amp;nbsp;" style="text;strokeColor=none;fillColor=none;align=left;verticalAlign=middle;spacingLeft=4;spacingRight=4;overflow=hidden;points=[[0,0.5],[1,0.5]];portConstraint=eastwest;rotatable=0;whiteSpace=wrap;html=1;fontFamily=Verdana;fontSize=11;" vertex="1" parent="M18HrZ36qZifkxjibqlq-101">
          <mxGeometry y="222" width="180" height="18" as="geometry" />
        </mxCell>
        <mxCell id="0b4WsjQA64Ebz_wwJr2V-8" value="" style="endArrow=none;html=1;rounded=0;fillColor=#fff2cc;strokeColor=#d6b656;strokeWidth=2;" edge="1" parent="1">
          <mxGeometry width="50" height="50" relative="1" as="geometry">
            <mxPoint x="520" y="420" as="sourcePoint" />
            <mxPoint x="520" y="320" as="targetPoint" />
          </mxGeometry>
        </mxCell>
        <mxCell id="M18HrZ36qZifkxjibqlq-112" style="rounded=0;orthogonalLoop=1;jettySize=auto;html=1;fontSize=11;exitX=1;exitY=0.5;exitDx=0;exitDy=0;" edge="1" parent="1" source="0b4WsjQA64Ebz_wwJr2V-10" target="M18HrZ36qZifkxjibqlq-75">
          <mxGeometry relative="1" as="geometry">
            <mxPoint x="460" y="385" as="sourcePoint" />
            <mxPoint x="500" y="380" as="targetPoint" />
            <Array as="points">
              <mxPoint x="490" y="410" />
            </Array>
          </mxGeometry>
        </mxCell>
        <mxCell id="0b4WsjQA64Ebz_wwJr2V-10" value="" style="rounded=0;whiteSpace=wrap;html=1;fillColor=none;strokeColor=none;" vertex="1" parent="1">
          <mxGeometry x="440" y="400" width="20" height="20" as="geometry" />
        </mxCell>
        <mxCell id="cefotnFPPKbyY3r7HRc0-2" style="rounded=0;orthogonalLoop=1;jettySize=auto;html=1;fontSize=11;exitX=0;exitY=0.5;exitDx=0;exitDy=0;entryX=1;entryY=1;entryDx=0;entryDy=0;" edge="1" parent="1" source="M18HrZ36qZifkxjibqlq-100" target="IEaI9znGGcz1ZlvIlabM-18">
          <mxGeometry relative="1" as="geometry">
            <mxPoint x="470" y="420" as="sourcePoint" />
            <mxPoint x="720" y="580" as="targetPoint" />
          </mxGeometry>
        </mxCell>
        <mxCell id="cefotnFPPKbyY3r7HRc0-4" value="" style="rounded=0;whiteSpace=wrap;html=1;fillColor=none;strokeColor=none;" vertex="1" parent="1">
          <mxGeometry x="540" y="370" width="20" height="20" as="geometry" />
        </mxCell>
      </root>
    </mxGraphModel>
  </diagram>
</mxfile>
